<?xml version="1.0" encoding="UTF-8"?>
<svg width="512px" height="512px" viewBox="0 0 512 512" version="1.1" xmlns="http://www.w3.org/2000/svg" xmlns:xlink="http://www.w3.org/1999/xlink">
    <title>Grupo 2</title>
    <g id="Página-1" stroke="none" stroke-width="1" fill="none" fill-rule="evenodd">
        <g id="Grupo-2">
            <circle id="Óvalo" fill="#991515" cx="256" cy="256" r="256"></circle>
            <g id="Grupo" transform="translate(128.5494, 88.9957)" fill="#FFFFFF">
                <path d="M182.721846,23.617282 C183.146769,23.2061063 183.483424,22.7220128 183.803656,22.636942 C184.60013,22.620738 183.411577,24.352537 184.175207,24.360639 L184.910099,23.7550157 L184.71098,25.6346759 L186.784277,27.1315173 C187.055243,26.9107383 187.311839,26.7183162 187.463744,26.7142652 C187.870193,26.8682029 187.870193,27.4738261 188.069311,27.9498177 L188.334119,28.045016 L189.00948,27.7108092 L189.17986,28.3609933 C192.090687,29.535781 195.55371,31.010342 198.645181,33.3477642 C199.714674,33.6880475 200.804695,34.0749172 201.439001,34.6055971 C202.214948,35.4563054 201.785919,36.9430194 201.954246,37.9132319 C205.195569,36.912637 207.451563,39.1629629 210.690834,38.0104557 C210.85095,38.7821697 210.892005,39.9731612 211.826015,39.8982179 C214.683471,39.6490819 218.045908,39.7787136 220.0412,42.1282889 C220.550287,43.0843229 219.491058,44.6500312 220.102783,44.9599321 C221.07169,45.4642806 222.009806,43.5967734 222.976661,44.0869434 C223.52475,36.157127 220.33064,29.4567866 217.594298,22.7726502 C215.619534,20.7795623 206.394387,7.36875402 203.231069,4.08542519 L202.904678,3.8383147 C201.22346,2.07410778 198.747819,0.281543928 196.422031,0 C195.147261,0.0911473147 193.773958,0.360538267 192.482766,0.636005707 L192.507399,2.6068132 C191.790983,2.0639803 191.060197,1.51912191 190.444366,1.84927774 C188.077522,2.0660058 188.174003,4.10365466 187.46785,6.35600608 C187.301575,7.43559538 185.981644,8.41593539 185.983697,9.61907995 L185.059951,8.89192692 C184.509809,9.67579383 186.537945,9.25246519 185.417133,10.3867429 C185.2447,9.84796098 184.515967,10.076842 184.16289,9.79732358 C183.631223,10.9862897 185.213909,11.0349016 184.462595,12.053726 C184.123888,12.1894342 184.34764,9.94315929 183.450579,11.2475786 C183.276094,11.5108931 183.610695,11.7782586 183.774917,11.9119413 C182.387245,11.6121679 181.155583,12.5985844 181.178163,14.6666157 C180.903092,14.4316582 180.794295,13.5627204 180.361161,13.5343635 L180.350897,13.5586694 C180.490485,13.7146326 180.609546,14.1845477 180.747082,14.2979754 L180.240048,13.8645193 L180.024507,14.508627 C180.063509,14.769916 180.118934,14.9927205 180.244153,15.1041228 L179.921868,14.8225789 L179.50105,16.3113183 C179.398412,17.4678765 178.961172,18.9687689 179.127446,19.1186556 C180.332422,20.5486557 181.330068,22.3574235 182.721846,23.617282" id="Fill-1"></path>
                <path d="M58.3441524,279.450623 C58.8403285,277.700449 59.2838492,275.974527 59.6747145,274.282961 C59.7314203,274.624508 59.8711597,274.693221 60.1627898,274.282961 C59.6868657,275.877519 58.9962696,277.748953 58.3441524,279.450623 M51.0675776,299.320962 C50.2736958,300.584079 49.2124865,301.948245 48.1188738,303.265928 C51.8655098,296.996828 54.6015668,290.832819 56.6348763,284.917392 C56.8677753,286.49174 56.4141285,290.376076 51.0675776,299.320962 M39.5643924,301.087305 C28.4702992,317.618974 10.3629085,298.328658 9.43131251,280.853188 C9.358405,281.326099 9.27537144,281.560533 9.06880016,279.798233 C8.12505292,272.328667 10.2656985,262.17321 15.7276863,252.219852 L18.1093317,247.749429 C18.6925918,246.579278 18.7634741,246.231669 18.8100539,246.013402 C21.4245983,241.524791 23.9905377,237.693001 26.4855947,234.22903 C35.2932273,221.551382 46.2597322,210.460208 58.5142699,200.492702 C58.1517576,212.167941 57.2869935,223.810845 55.6830282,235.399181 C55.865297,235.512356 56.341221,232.870927 55.9949103,237.01597 C54.6238441,250.075585 53.3216349,260.550358 50.5795023,272.839977 L50.6605107,273.799945 C47.8515462,282.78323 44.7124728,294.149258 39.5643924,301.087305 M250.560758,207.151853 C248.06165,195.424068 244.288687,182.833323 235.971155,172.54448 C227.712354,162.304142 216.354983,155.582341 204.963185,150.851211 C181.964915,139.717597 154.272212,141.97706 130.945858,149.943789 C122.847049,152.514483 103.400995,160.51759 80.8523216,174.874678 C78.4443485,176.368187 75.9614426,177.960724 73.4481587,179.609849 C72.9924867,163.87849 71.9657059,145.964466 70.3657911,131.799372 C70.4447742,131.750868 70.5257826,131.700344 70.6047657,131.649819 C70.452875,131.461867 70.3293373,131.277957 70.2868079,131.100111 C70.2807323,131.043523 70.2746567,130.984914 70.2665558,130.928327 C70.2766819,130.855571 70.3050348,130.784837 70.3617407,130.714102 C71.4918071,129.826889 73.4400578,129.333768 75.1999642,128.3738 L75.8622074,127.753357 C75.9371401,127.425957 75.7892999,127.054096 75.6981655,126.823703 C76.4900221,126.399296 77.2352989,126.084022 77.9380463,125.809168 C85.1275371,118.814534 91.3489781,110.944812 96.6550249,101.793786 C97.4873856,99.5848473 98.190133,97.3395314 99.1035021,95.4216152 C100.725694,92.8387945 103.864768,90.4398835 105.557842,87.9338603 C102.084609,85.9148948 104.275885,79.2294715 100.016871,78.2917338 C100.962644,76.8346025 102.234475,74.5387619 101.302879,73.92034 C98.2974691,71.9983818 95.9158237,69.130602 95.1016898,64.9309921 C95.1057402,63.4395041 97.2463858,61.800484 96.7785626,61.1234536 C95.996832,60.0806246 93.8217579,62.1864925 93.056229,61.1194116 C89.0098621,69.7227511 83.7868489,79.6397317 74.6045528,87.6994258 C74.2116623,89.8416715 69.3774892,93.9887358 63.4497035,97.9822051 C61.5966375,90.819829 59.4904205,83.6736208 57.2181364,78.3058807 C57.2140859,78.2937547 57.2080103,78.2816288 57.2039599,78.2695029 C56.6895569,75.9110117 56.5072881,75.6159476 56.5174142,76.5738952 C55.2192554,73.3564848 53.9798277,70.0845076 52.4345935,66.9499576 C53.0401309,68.7587405 53.3479626,70.5250827 53.6638951,72.0367806 C52.5277531,68.0109755 50.6908888,64.2438567 49.9780154,62.8049143 C47.3006895,57.1562571 47.1953786,57.8918962 47.5720675,60.00989 C45.9437997,54.9938016 43.9732716,49.9878181 41.6787102,46.1459227 L41.7009875,46.2045314 C43.6512635,49.7857194 46.4440262,56.3640304 47.519412,60.1068974 C46.0551862,55.5879716 44.2243975,51.2064729 42.0432478,47.1200382 L42.9505413,49.391627 C44.5484309,52.4392747 45.6622957,55.8628258 46.9280511,59.3045657 C45.9113963,56.3438205 44.7570274,53.4133901 43.452793,50.6102819 C44.3519857,52.7262547 45.0668843,55.373747 46.0491105,58.1283516 C46.7052781,60.1958208 47.276387,62.257227 47.8049665,64.2964024 C47.7300337,64.4904171 47.7786387,64.9673699 48.1674788,66.2203815 C47.1386728,63.6739385 46.6242698,62.398696 45.5954638,59.8401272 C45.180296,59.6643013 48.9593354,67.6229461 47.752311,66.0405137 C46.8632444,63.5506583 45.55901,60.8809352 44.5322292,58.3344922 C44.4978007,59.3773213 47.9912856,67.194497 47.4384037,66.9539996 C46.7862865,65.6221695 45.0466322,59.6097347 44.3580613,59.3166917 C44.2203471,59.260104 45.2471279,61.804526 45.7595057,63.0757265 C42.4037349,55.3191804 40.192207,51.2388087 42.5758777,58.5648847 C41.5815002,56.0952392 40.356249,52.5201141 39.2201069,49.9393144 L39.2221321,49.9615452 C39.7385603,51.2711445 40.5587698,53.5609222 41.0448199,54.7634091 L39.250485,50.3131969 L39.3679471,51.1781791 L40.6337025,54.5936462 L39.4428798,51.640985 C39.5886949,52.4453376 39.7831149,53.3568025 40.0220895,54.3450649 C41.1420299,57.9747566 42.0513486,61.4993571 42.8108019,63.3869584 C46.7295806,73.2190577 49.9132087,83.3300531 52.6674925,93.5441187 C52.9793746,96.9838377 53.2892315,100.427599 53.6071893,103.875402 C48.6920078,106.446096 44.2102211,108.184145 41.8670546,107.986088 L41.3020214,108.204355 C37.7133516,108.935952 34.3434044,109.441198 32.0508682,110.958959 C31.2792637,111.650137 30.1816006,112.70105 28.9178704,113.630703 C29.1122904,114.348154 29.4687271,115.009016 29.7401051,115.722424 C28.4277699,115.584997 27.856661,115.027205 27.2632749,115.540536 C24.6386044,116.346909 24.2295123,118.230469 24.4117811,121.318536 C24.8654278,122.84236 22.712631,123.871042 23.96421,125.776832 C22.7065554,125.144263 22.0807659,124.820906 20.849439,124.166106 C20.1466916,125.105865 25.0112428,125.471663 23.4072776,126.765095 C22.2934128,125.760664 20.5011031,125.784916 19.219146,124.938123 C18.7573985,126.595332 23.7454874,127.783672 22.9860342,129.083166 C21.9045727,129.016474 19.7882297,125.344341 18.5569028,126.805514 C18.2855248,127.092494 19.7598767,127.896847 20.5152796,128.280834 C15.754014,126.787325 11.8777646,124.283323 15.0127876,130.27959 C13.3602173,128.836606 11.7542269,126.170925 10.1138078,124.715814 L10.0996314,124.746129 C10.7699754,125.594943 11.8352352,127.250131 12.5967137,127.997896 L9.97204323,125.164473 L9.80597612,126.148694 C10.2920262,127.015697 10.8692107,127.874616 11.6144875,128.630465 L9.76749715,126.662024 C9.74927027,127.539132 9.86065675,128.513248 10.1178583,129.543951 C11.6610673,132.959418 13.5850155,136.437536 15.2537874,137.096377 C28.8044587,144.432558 39.851972,142.603566 49.1436294,140.885727 C48.9917387,140.200613 48.3517728,139.650904 49.0119908,139.133532 C51.1323843,137.854247 53.6598447,139.582191 55.8146668,138.254403 L55.6222719,137.132755 C55.9058011,137.110524 56.2035068,137.090315 56.4910864,137.070105 C57.8540519,154.689065 58.8119756,172.336319 58.7167908,189.929006 C41.8933823,202.606654 24.8168228,218.867512 12.6432935,239.633148 C3.70604759,253.361709 -3.9269639,273.084516 2.22359484,290.606469 C4.96167697,299.175451 9.33815291,307.123991 17.112929,312.738292 C25.0335201,318.928573 37.5817131,316.782286 43.452793,310.373738 C44.1859186,309.357181 44.8785399,308.342646 45.5529344,307.330132 C45.9964551,306.972417 46.1949256,306.885515 45.7878586,307.477664 C69.2640776,281.216966 70.3657911,246.587362 72.9398313,215.249946 C73.6101754,211.753639 73.84915,201.735609 73.6587804,189.126674 C79.3334151,185.181709 85.1842429,181.410548 91.1484825,177.784898 C116.16386,162.548681 144.897521,148.810015 176.365213,150.525833 C189.427809,151.221052 202.225103,156.152259 213.465011,162.1364 C221.742039,166.665431 230.170957,173.791429 235.367643,183.083925 C240.596731,192.319833 243.079637,202.944159 244.768661,212.030514 C245.09877,210.504669 247.788247,220.839994 248.474793,230.748891 C249.513725,240.635557 247.891533,249.863381 249.248423,245.368707 C248.371507,258.284832 239.268194,275.398545 238.697086,276.107912 C238.075346,277.548875 237.670305,280.687467 233.160165,286.776699 C228.508261,292.257615 220.142124,301.305571 202.306111,305.254579 C195.400149,306.638955 185.75003,306.198379 178.449153,302.421156 C170.959931,298.943038 166.72522,293.369157 164.941011,291.659403 C160.272905,287.742731 170.172125,297.47176 172.691484,300.082874 C197.224862,316.024416 228.562941,301.408642 240.874185,279.499127 C254.868377,258.234307 256.484493,230.564981 250.560758,207.151853 M172.691484,300.082874 C172.509216,299.963636 172.322897,299.860566 172.140628,299.737286 C173.554223,301.028696 173.493467,300.915521 172.691484,300.082874" id="Fill-3"></path>
            </g>
        </g>
    </g>
</svg>